<svg xmlns="http://www.w3.org/2000/svg" viewBox="0 0 83.25 97.46"><defs><style>.cls-1{fill:#4f5362;fill-rule:evenodd;}</style></defs><title>cook hat</title><g id="Layer_2" data-name="Layer 2"><g id="Layer_1-2" data-name="Layer 1"><path class="cls-1" d="M31.81,81.21H13.58a9.41,9.41,0,0,0-9.4,9.4v2.34h8.06l.3-.66c.51-1.12,1.38-2.19,1.85-2.27l1.86.3a24.72,24.72,0,0,0,13.86-1.63l.95-.44a2.72,2.72,0,0,1,2.36,2.69v6.52h6.66a72.48,72.48,0,0,0,21.58-3.53A62.24,62.24,0,0,0,81,83.18l2.25-2Zm-2.25,5.25-.36.16a22.46,22.46,0,0,1-12.6,1.46l-2-.32h-.18c-1.74,0-3,1.85-3.62,2.94H6.44v-.09a7.15,7.15,0,0,1,7.14-7.14h16Zm31.37,5.33A71.06,71.06,0,0,1,39.58,95.2H35.67V90.94a5,5,0,0,0-3.86-4.85V83.46H77A62.78,62.78,0,0,1,60.93,91.79ZM13.49,46.5V74.43H65.94V46.5a18.37,18.37,0,0,0-4.88-36.09H58.42a22,22,0,0,0-37.41,0H18.38A18.37,18.37,0,0,0,13.49,46.5Zm4.88-33.84h1.41a21.85,21.85,0,0,0-1,2.58A13.56,13.56,0,0,0,5.22,28.78H7.48A11.29,11.29,0,0,1,18.15,17.53a22.07,22.07,0,0,0,2.4,15.37l2-1.11A19.78,19.78,0,0,1,56.82,12.1l1.54-.9v1.46h2.69a16.12,16.12,0,1,1,0,32.25v2.25A18.42,18.42,0,0,0,63.69,47V64.1H51.51V48.29H49.26V64.1H40.84V48.29H38.59V64.1H30.17V48.29H27.92V64.1H18.81v2.25H63.69v5.82H15.75V47a18.42,18.42,0,0,0,2.63.19V44.91a16.12,16.12,0,0,1,0-32.25Z"/></g></g></svg>